<?xml version="1.0" encoding="UTF-8" standalone="no"?>
<svg
   enable-background="new 0 0 20 20"
   height="48px"
   viewBox="0 0 20 20"
   width="48px"
   fill="#FFFFFF"
   version="1.1"
   id="svg10"
   sodipodi:docname="arrow-r.svg"
   inkscape:version="1.1.1 (3bf5ae0d25, 2021-09-20)"
   xmlns:inkscape="http://www.inkscape.org/namespaces/inkscape"
   xmlns:sodipodi="http://sodipodi.sourceforge.net/DTD/sodipodi-0.dtd"
   xmlns="http://www.w3.org/2000/svg"
   xmlns:svg="http://www.w3.org/2000/svg">
  <defs
     id="defs14" />
  <sodipodi:namedview
     id="namedview12"
     pagecolor="#505050"
     bordercolor="#eeeeee"
     borderopacity="1"
     inkscape:pageshadow="0"
     inkscape:pageopacity="0"
     inkscape:pagecheckerboard="0"
     showgrid="false"
     inkscape:zoom="17.333333"
     inkscape:cx="23.971154"
     inkscape:cy="24.028846"
     inkscape:window-width="1920"
     inkscape:window-height="1017"
     inkscape:window-x="-8"
     inkscape:window-y="-8"
     inkscape:window-maximized="1"
     inkscape:current-layer="svg10" />
  <g
     id="g4">
    <rect
       fill="none"
       height="20"
       width="20"
       id="rect2" />
  </g>
  <g
     id="g8"
     style="fill:#808080">
    <path
       d="M18,10c0-4.42-3.58-8-8-8s-8,3.58-8,8s3.58,8,8,8S18,14.42,18,10z M10,11.79v-1.04H7.75C7.34,10.75,7,10.41,7,10 s0.34-0.75,0.75-0.75H10V8.21c0-0.45,0.54-0.67,0.85-0.35l1.79,1.79c0.2,0.2,0.2,0.51,0,0.71l-1.79,1.79 C10.54,12.46,10,12.24,10,11.79z"
       id="path6"
       style="fill:#808080" />
  </g>
</svg>
