<?xml version="1.0" encoding="UTF-8" standalone="no"?>
<svg
   height="48px"
   viewBox="0 0 24 24"
   width="48px"
   fill="#FFFFFF"
   version="1.1"
   id="svg6"
   sodipodi:docname="exit.svg"
   inkscape:version="1.1.1 (3bf5ae0d25, 2021-09-20)"
   xmlns:inkscape="http://www.inkscape.org/namespaces/inkscape"
   xmlns:sodipodi="http://sodipodi.sourceforge.net/DTD/sodipodi-0.dtd"
   xmlns="http://www.w3.org/2000/svg"
   xmlns:svg="http://www.w3.org/2000/svg">
  <defs
     id="defs10" />
  <sodipodi:namedview
     id="namedview8"
     pagecolor="#505050"
     bordercolor="#eeeeee"
     borderopacity="1"
     inkscape:pageshadow="0"
     inkscape:pageopacity="0"
     inkscape:pagecheckerboard="0"
     showgrid="false"
     inkscape:zoom="17.333333"
     inkscape:cx="23.971154"
     inkscape:cy="24.028846"
     inkscape:window-width="1920"
     inkscape:window-height="1017"
     inkscape:window-x="-8"
     inkscape:window-y="-8"
     inkscape:window-maximized="1"
     inkscape:current-layer="svg6" />
  <path
     d="M0 0h24v24H0V0z"
     fill="none"
     opacity=".87"
     id="path2" />
  <path
     d="M12 2C6.47 2 2 6.47 2 12s4.47 10 10 10 10-4.47 10-10S17.53 2 12 2zm4.3 14.3c-.39.39-1.02.39-1.41 0L12 13.41 9.11 16.3c-.39.39-1.02.39-1.41 0-.39-.39-.39-1.02 0-1.41L10.59 12 7.7 9.11c-.39-.39-.39-1.02 0-1.41.39-.39 1.02-.39 1.41 0L12 10.59l2.89-2.89c.39-.39 1.02-.39 1.41 0 .39.39.39 1.02 0 1.41L13.41 12l2.89 2.89c.38.38.38 1.02 0 1.41z"
     id="path4"
     style="fill:#4d4d4d" />
</svg>
