<?xml version="1.0" encoding="UTF-8" standalone="no"?>
<svg
   enable-background="new 0 0 20 20"
   height="48px"
   viewBox="0 0 20 20"
   width="48px"
   fill="#FFFFFF"
   version="1.1"
   id="svg1533"
   sodipodi:docname="female.svg"
   inkscape:version="1.1.1 (3bf5ae0d25, 2021-09-20)"
   xmlns:inkscape="http://www.inkscape.org/namespaces/inkscape"
   xmlns:sodipodi="http://sodipodi.sourceforge.net/DTD/sodipodi-0.dtd"
   xmlns="http://www.w3.org/2000/svg"
   xmlns:svg="http://www.w3.org/2000/svg">
  <defs
     id="defs1537">
    <filter
       inkscape:collect="always"
       style="color-interpolation-filters:sRGB"
       id="filter1632"
       x="-0.024865129"
       y="-0.016257969"
       width="1.0497303"
       height="1.0325159">
      <feGaussianBlur
         inkscape:collect="always"
         stdDeviation="0.088064"
         id="feGaussianBlur1634" />
    </filter>
  </defs>
  <sodipodi:namedview
     id="namedview1535"
     pagecolor="#505050"
     bordercolor="#eeeeee"
     borderopacity="1"
     inkscape:pageshadow="0"
     inkscape:pageopacity="0"
     inkscape:pagecheckerboard="0"
     showgrid="false"
     inkscape:zoom="17.333333"
     inkscape:cx="23.971154"
     inkscape:cy="24.028846"
     inkscape:window-width="1920"
     inkscape:window-height="1017"
     inkscape:window-x="-8"
     inkscape:window-y="-8"
     inkscape:window-maximized="1"
     inkscape:current-layer="svg1533" />
  <rect
     fill="none"
     height="20"
     width="20"
     id="rect1529" />
  <path
     d="M14.25,8.25C14.25,5.9,12.35,4,10,4S5.75,5.9,5.75,8.25c0,2.09,1.51,3.82,3.5,4.17V14h-1.5v1.5h1.5V17h1.5v-1.5h1.5V14h-1.5 v-1.58C12.74,12.07,14.25,10.34,14.25,8.25z M7.25,8.25C7.25,6.73,8.48,5.5,10,5.5s2.75,1.23,2.75,2.75S11.52,11,10,11 S7.25,9.77,7.25,8.25z"
     id="path1531"
     style="fill:#ff00ff;filter:url(#filter1632)" />
</svg>
